<?xml version="1.0" encoding="UTF-8"?>
<svg width="131px" height="95px" viewBox="0 0 131 95" version="1.1" xmlns="http://www.w3.org/2000/svg" xmlns:xlink="http://www.w3.org/1999/xlink">
    <!-- Generator: Sketch 64 (93537) - https://sketch.com -->
    <title>soi_logo_solid</title>
    <desc>Created with Sketch.</desc>
    <g id="Page-1" stroke="none" stroke-width="1" fill="none" fill-rule="evenodd">
        <path d="M23.2421875,40 C36.6699219,40 44.9707031,46.8847656 45.2636719,57.1386719 L45.2636719,57.1386719 L32.1289062,57.1386719 C31.6894531,52.890625 28.515625,50.0097656 23.2421875,50.0097656 C18.3105469,50.0097656 15.0390625,52.2558594 15.0390625,55.7226562 C15.0390625,58.4082031 16.9921875,60.2148438 22.265625,61.3378906 L22.265625,61.3378906 L31.2011719,63.2421875 C42.1386719,65.5371094 46.6308594,69.8339844 46.6308594,77.5 C46.6308594,87.8027344 37.2070312,94.5898438 23.7304688,94.5898438 C9.27734375,94.5898438 0.927734375,87.8515625 0,77.5488281 L0,77.5488281 L13.9160156,77.5488281 C14.7949219,82.1386719 18.0664062,84.5800781 23.7304688,84.5800781 C29.1015625,84.5800781 32.421875,82.3828125 32.421875,78.9648438 C32.421875,76.1816406 30.6152344,74.6191406 25.4882812,73.4472656 L25.4882812,73.4472656 L16.5527344,71.5917969 C6.4453125,69.4433594 1.31835938,64.3652344 1.31835938,56.5039062 C1.31835938,46.5429688 9.91210938,40 23.2421875,40 Z M130.398832,41.1230469 L130.398832,93.4667969 L116.14102,93.4667969 L116.14102,41.1230469 L130.398832,41.1230469 Z M75.0421705,63.9892578 C75.4816236,63.9892578 75.9210767,64.1650391 76.2433423,64.5019531 L76.2433423,64.5019531 L85.8966627,74.1699219 C86.2482252,74.5214844 86.409358,74.9169922 86.409358,75.3417969 C86.409358,76.2646484 85.7355298,76.9384766 84.8419752,76.9384766 C84.3878736,76.9384766 83.9777173,76.7480469 83.6847486,76.4550781 L83.6847486,76.4550781 L80.3449048,73.1445312 L76.5509595,68.9111328 L76.668147,72.0751953 L76.668147,90.1660156 C76.668147,91.1328125 75.9943189,91.8066406 75.0421705,91.8066406 C74.0753736,91.8066406 73.4015455,91.1328125 73.4015455,90.1660156 L73.4015455,90.1660156 L73.4015455,72.0751953 L73.5333814,68.8964844 L69.7247877,73.1445312 L66.3995923,76.4550781 C66.1066236,76.7480469 65.6964673,76.9384766 65.2277173,76.9384766 C64.3341627,76.9384766 63.674983,76.2646484 63.674983,75.3417969 C63.674983,74.9169922 63.8361158,74.5214844 64.1876783,74.1699219 L64.1876783,74.1699219 L73.8263502,64.5019531 C74.1486158,64.1650391 74.5880689,63.9892578 75.0421705,63.9892578 Z M77.4201192,0 C93.0939473,0 103.347854,10.2539062 103.347854,27.2460938 C103.347854,44.4824219 93.2404317,54.5898438 77.4201192,54.5898438 C61.5998067,54.5898438 51.4923848,44.4335938 51.4923848,27.2460938 C51.4923848,10.3027344 61.7462911,0 77.4201192,0 Z M77.4201192,10.8886719 C70.4865255,10.8886719 65.9455098,16.8945312 65.9455098,27.2949219 C65.9455098,37.7929688 70.3888692,43.7011719 77.4201192,43.7011719 C84.4025411,43.7011719 88.8459005,37.7929688 88.8459005,27.2949219 C88.8459005,16.8945312 84.353713,10.8886719 77.4201192,10.8886719 Z M123.221098,19.3945312 C127.371488,19.3945312 130.642973,22.6660156 130.642973,26.71875 C130.642973,30.7226562 127.371488,34.0429688 123.221098,34.0429688 C119.070707,34.0429688 115.799223,30.7226562 115.799223,26.71875 C115.799223,22.6660156 119.070707,19.3945312 123.221098,19.3945312 Z" id="soi_logo_solid" fill="#000000" fill-rule="nonzero"></path>
    </g>
</svg>