<?xml version="1.0" encoding="UTF-8"?>
<svg width="132px" height="96px" viewBox="0 0 132 96" version="1.1" xmlns="http://www.w3.org/2000/svg" xmlns:xlink="http://www.w3.org/1999/xlink">
    <!-- Generator: Sketch 64 (93537) - https://sketch.com -->
    <title>soi_logo_whiteline</title>
    <desc>Created with Sketch.</desc>
    <g id="Page-1" stroke="none" stroke-width="1" fill="none" fill-rule="evenodd">
        <path d="M24.2421875,41 C37.6699219,41 45.9707031,47.8847656 46.2636719,58.1386719 L46.2636719,58.1386719 L33.1289062,58.1386719 C32.6894531,53.890625 29.515625,51.0097656 24.2421875,51.0097656 C19.3105469,51.0097656 16.0390625,53.2558594 16.0390625,56.7226562 C16.0390625,59.4082031 17.9921875,61.2148438 23.265625,62.3378906 L23.265625,62.3378906 L32.2011719,64.2421875 C43.1386719,66.5371094 47.6308594,70.8339844 47.6308594,78.5 C47.6308594,88.8027344 38.2070312,95.5898438 24.7304688,95.5898438 C10.2773438,95.5898438 1.92773438,88.8515625 1,78.5488281 L1,78.5488281 L14.9160156,78.5488281 C15.7949219,83.1386719 19.0664062,85.5800781 24.7304688,85.5800781 C30.1015625,85.5800781 33.421875,83.3828125 33.421875,79.9648438 C33.421875,77.1816406 31.6152344,75.6191406 26.4882812,74.4472656 L26.4882812,74.4472656 L17.5527344,72.5917969 C7.4453125,70.4433594 2.31835938,65.3652344 2.31835938,57.5039062 C2.31835938,47.5429688 10.9121094,41 24.2421875,41 Z M131.398832,42.1230469 L131.398832,94.4667969 L117.14102,94.4667969 L117.14102,42.1230469 L131.398832,42.1230469 Z M76.0421705,64.9892578 C76.4816236,64.9892578 76.9210767,65.1650391 77.2433423,65.5019531 L77.2433423,65.5019531 L86.8966627,75.1699219 C87.2482252,75.5214844 87.409358,75.9169922 87.409358,76.3417969 C87.409358,77.2646484 86.7355298,77.9384766 85.8419752,77.9384766 C85.3878736,77.9384766 84.9777173,77.7480469 84.6847486,77.4550781 L84.6847486,77.4550781 L81.3449048,74.1445312 L77.5509595,69.9111328 L77.668147,73.0751953 L77.668147,91.1660156 C77.668147,92.1328125 76.9943189,92.8066406 76.0421705,92.8066406 C75.0753736,92.8066406 74.4015455,92.1328125 74.4015455,91.1660156 L74.4015455,91.1660156 L74.4015455,73.0751953 L74.5333814,69.8964844 L70.7247877,74.1445312 L67.3995923,77.4550781 C67.1066236,77.7480469 66.6964673,77.9384766 66.2277173,77.9384766 C65.3341627,77.9384766 64.674983,77.2646484 64.674983,76.3417969 C64.674983,75.9169922 64.8361158,75.5214844 65.1876783,75.1699219 L65.1876783,75.1699219 L74.8263502,65.5019531 C75.1486158,65.1650391 75.5880689,64.9892578 76.0421705,64.9892578 Z M78.4201192,1 C94.0939473,1 104.347854,11.2539062 104.347854,28.2460938 C104.347854,45.4824219 94.2404317,55.5898438 78.4201192,55.5898438 C62.5998067,55.5898438 52.4923848,45.4335938 52.4923848,28.2460938 C52.4923848,11.3027344 62.7462911,1 78.4201192,1 Z M78.4201192,11.8886719 C71.4865255,11.8886719 66.9455098,17.8945312 66.9455098,28.2949219 C66.9455098,38.7929688 71.3888692,44.7011719 78.4201192,44.7011719 C85.4025411,44.7011719 89.8459005,38.7929688 89.8459005,28.2949219 C89.8459005,17.8945312 85.353713,11.8886719 78.4201192,11.8886719 Z M124.221098,20.3945312 C128.371488,20.3945312 131.642973,23.6660156 131.642973,27.71875 C131.642973,31.7226562 128.371488,35.0429688 124.221098,35.0429688 C120.070707,35.0429688 116.799223,31.7226562 116.799223,27.71875 C116.799223,23.6660156 120.070707,20.3945312 124.221098,20.3945312 Z" id="soi_logo_whiteline" stroke="#FFFFFF" stroke-width="0.5" fill-rule="nonzero"></path>
    </g>
</svg>